Coordinates
version=1
nRows=5
nColumns=40
inDegrees=yes

Units are S.I. units (second, meters, Newtons, ...)
Angles are in degrees.

endheader
time	pelvis_tilt	pelvis_list	pelvis_rotation	pelvis_tx	pelvis_ty	pelvis_tz	hip_flexion_r	hip_adduction_r	hip_rotation_r	knee_angle_r	knee_angle_r_beta	ankle_angle_r	subtalar_angle_r	mtp_angle_r	hip_flexion_l	hip_adduction_l	hip_rotation_l	knee_angle_l	knee_angle_l_beta	ankle_angle_l	subtalar_angle_l	mtp_angle_l	lumbar_extension	lumbar_bending	lumbar_rotation	arm_flex_r	arm_add_r	arm_rot_r	elbow_flex_r	pro_sup_r	wrist_flex_r	wrist_dev_r	arm_flex_l	arm_add_l	arm_rot_l	elbow_flex_l	pro_sup_l	wrist_flex_l	wrist_dev_l
      0.67000000	     -3.44714826	     -0.69082226	      0.01950475	     -0.08183558	      0.88267722	      1.10882835	     -7.60018312	      0.23564687	    -11.92524016	    -17.69818216	     -0.30889155	     10.56189657	      2.50432429	     -6.52095224	     34.25133797	      5.49117934	     11.69167447	    -27.08382109	     -0.47270185	      6.36670955	     12.43958937	     13.40949584	     -3.83421150	     -0.84101350	      1.50419946	     -3.35128361	    -13.46042479	    -10.56465213	     59.25521167	     89.95437384	      0.00000000	      0.00000000	    -11.33339313	      6.27010503	     26.08503107	     24.01255549	     89.95437384	      0.00000000	      0.00000000
      0.68000000	     -3.62268963	     -0.66629680	     -0.36428740	     -0.06800036	      0.88085347	      1.10808151	     -8.01446442	     -0.14496786	    -11.94285560	    -18.34379217	     -0.32015957	     10.43328440	      3.55465016	     -7.14128806	     34.69004764	      5.97690911	     13.59541413	    -25.83395673	     -0.45088760	      6.07558978	      9.75111922	     11.43651941	     -3.57401205	     -0.98510832	      1.72268183	     -3.20530115	    -13.47570542	    -10.29260789	     60.16940184	     89.95437384	      0.00000000	      0.00000000	    -11.66248873	      6.10574840	     27.15644416	     23.06540147	     89.95437384	      0.00000000	      0.00000000
      0.69000000	     -3.92933509	     -0.65566610	     -0.56051689	     -0.05428654	      0.87883507	      1.10687534	     -8.22218738	     -0.40792752	    -11.62293295	    -19.08411495	     -0.33308064	      9.96970693	      3.42540707	     -7.08900644	     35.16993585	      6.00034053	     14.31970228	    -24.73273802	     -0.43166771	      6.07089158	      9.10022417	     11.04612322	     -3.17493396	     -1.08575745	      1.83541017	     -3.21342508	    -13.63020440	     -9.91567485	     61.12496954	     89.95437384	      0.00000000	      0.00000000	    -12.06106507	      6.11045068	     27.13449170	     22.35326900	     89.95437384	      0.00000000	      0.00000000
      0.70000000	     -3.94606917	     -0.47567090	     -1.11487520	     -0.03995514	      0.87731180	      1.10624531	     -8.59525608	     -0.90058565	    -10.82690706	    -20.09904736	     -0.35079455	      9.48855040	      3.26966279	     -7.64961969	     35.25065922	      6.25701315	     15.92138738	    -24.29926926	     -0.42410225	      5.93062317	      7.47706181	      8.73269816	     -3.03141011	     -1.40538963	      2.27831649	     -3.18108064	    -13.50741959	     -9.93014089	     61.85452506	     89.95437384	      0.00000000	      0.00000000	    -12.29107969	      6.12866669	     27.46669841	     21.44665245	     89.95437384	      0.00000000	      0.00000000
      0.71000000	     -3.97471801	     -0.37597661	     -1.50390842	     -0.02558981	      0.87578324	      1.10530226	     -8.87395955	     -1.28418847	    -10.16347714	    -21.22738461	     -0.37048775	      8.76947429	      2.93604805	     -7.50083642	     35.27227187	      6.14312986	     16.02962002	    -24.13202103	     -0.42118322	      6.13601265	      7.66754878	      8.38256091	     -2.88730170	     -1.63538668	      2.48836628	     -3.17501515	    -13.48108504	     -9.70907426	     62.55210318	     89.95437384	      0.00000000	      0.00000000	    -12.63866135	      6.15109408	     27.42200715	     20.88067069	     89.95437384	      0.00000000	      0.00000000
